<?xml version="1.0" encoding="UTF-8" standalone="no"?>
<!-- Created with Inkscape (http://www.inkscape.org/) -->

<svg
   xmlns:dc="http://purl.org/dc/elements/1.1/"
   xmlns:cc="http://creativecommons.org/ns#"
   xmlns:rdf="http://www.w3.org/1999/02/22-rdf-syntax-ns#"
   xmlns:svg="http://www.w3.org/2000/svg"
   xmlns="http://www.w3.org/2000/svg"
   xmlns:sodipodi="http://sodipodi.sourceforge.net/DTD/sodipodi-0.dtd"
   xmlns:inkscape="http://www.inkscape.org/namespaces/inkscape"
   version="1.1"
   id="svg3850"
   width="2560"
   height="725.33331"
   viewBox="0 0 2560 725.33331"
   sodipodi:docname="fundo_top_top.png.svg"
   inkscape:version="0.92.5 (2060ec1f9f, 2020-04-08)">
  <metadata
     id="metadata3856">
    <rdf:RDF>
      <cc:Work
         rdf:about="">
        <dc:format>image/svg+xml</dc:format>
        <dc:type
           rdf:resource="http://purl.org/dc/dcmitype/StillImage" />
        <dc:title></dc:title>
      </cc:Work>
    </rdf:RDF>
  </metadata>
  <defs
     id="defs3854" />
  <sodipodi:namedview
     pagecolor="#ffffff"
     bordercolor="#666666"
     borderopacity="1"
     objecttolerance="10"
     gridtolerance="10"
     guidetolerance="10"
     inkscape:pageopacity="0"
     inkscape:pageshadow="2"
     inkscape:window-width="1294"
     inkscape:window-height="704"
     id="namedview3852"
     showgrid="false"
     inkscape:zoom="0.19101562"
     inkscape:cx="415.83467"
     inkscape:cy="1148.165"
     inkscape:window-x="72"
     inkscape:window-y="27"
     inkscape:window-maximized="1"
     inkscape:current-layer="svg3850" />
  <g
     id="g3860"
     transform="translate(-5.2351434,-5.2351714)">
    <path
       style="fill:#fefefe;stroke-width:1.33333325"
       d="M 0.33090355,362.33332 0.66180708,-0.66666665 0.99998996,361.66666 1.3381728,723.99998 387.66908,723.94146 c 310.27899,-0.047 387.24959,-0.3942 390.99759,-1.7637 2.56666,-0.93782 36.16666,-20.78924 74.66666,-44.11424 38.5,-23.32499 77.0818,-46.68134 85.73734,-51.90298 8.65553,-5.22164 20.95553,-12.7372 27.33333,-16.70124 38.5501,-23.96032 108.9779,-67.15965 116.6975,-71.58046 20.8986,-11.9681 33.0198,-25.63647 38.2719,-43.15682 2.7767,-9.26288 4.4168,-32.48011 2.5427,-35.99583 -2.4828,-4.6579 -15.8874,-44.17714 -43.2104,-127.39287 -45.5774,-138.81177 -51.0752,-155.51566 -61.4386,-186.66666 -5.3672,-16.13333 -11.3572,-34.73333 -13.3111,-41.33333 -1.9538,-6.6 -4.2998,-13.2 -5.2134,-14.666666 C 999.82907,87.199997 992.90981,67.699998 985.36649,45.333332 977.82317,22.966666 970.73681,3.6166666 969.61903,2.3333333 967.68377,0.11144714 1005.616,0 1763.7933,0 H 2560 V 362.66665 725.33331 H 1280 0 Z M 1934.4,373.06665 c 0.88,-0.88 1.6,-2.03714 1.6,-2.57142 0,-2.04867 -4.1679,-5.01378 -6.0385,-4.29594 -2.3886,0.91652 -2.6114,6.6496 -0.2948,7.58432 2.6073,1.05207 3.028,0.98834 4.7333,-0.71696 z"
       id="path3876"
       inkscape:connector-curvature="0" />
    <path
       style="fill:#f9fafa;stroke-width:1.33333325"
       d="m 779.33333,721.69202 c 1.49719,-1.46094 162.78983,-99.16867 177.33334,-107.42485 5.13333,-2.91414 12.63333,-7.56658 16.66666,-10.33876 8.90003,-6.11715 109.70187,-68.01381 116.11007,-71.2966 16.6763,-8.54288 29.6679,-27.46136 33.1795,-48.31635 0.838,-4.97686 1.0967,-5.42677 1.2203,-2.1226 0.2484,6.64274 -4.6721,20.61318 -10.3593,29.41242 -5.8373,9.03149 -16.744,18.4632 -30.3824,26.27356 -7.7196,4.42081 -78.1474,47.62014 -116.6975,71.58046 -6.3778,3.96404 -18.6778,11.4796 -27.33333,16.70124 -8.65554,5.22164 -46.93734,28.37343 -85.07067,51.44841 -68.46876,41.43136 -77.28101,46.63409 -74.66667,44.08307 z M 1124.1053,473.88888 c 0.064,-1.55327 0.3799,-1.8692 0.8055,-0.80556 0.3852,0.96249 0.3378,2.1125 -0.1052,2.55556 -0.443,0.44305 -0.7582,-0.34446 -0.7003,-1.75 z m -0.3393,-11.65665 c -0.4961,-2.4331 -0.3102,-3.30982 0.5246,-2.47496 0.7111,0.71104 1.0567,2.40653 0.7682,3.76776 -0.3885,1.83309 -0.7238,1.49781 -1.2928,-1.2928 z m -4.2422,-11.75606 c -1.3133,-3.69777 -2.1571,-6.95401 -1.875,-7.23609 0.2821,-0.28208 1.5973,2.50273 2.9226,6.18848 1.3254,3.68573 2.1692,6.94197 1.875,7.23609 -0.2941,0.29412 -1.6093,-2.49069 -2.9226,-6.18848 z m -4.1762,-11.41868 c -2.4768,-6.03138 -23.3369,-69.15225 -23.253,-70.36142 0.052,-0.74952 5.6834,15.13725 12.514,35.30392 6.8306,20.16666 12.2621,36.84254 12.0701,37.0575 -0.1921,0.21496 -0.7911,-0.68504 -1.3311,-2 z M 1933,372.22221 c 1.2833,-1.34445 2.5688,-2.25894 2.8567,-2.03222 0.7876,0.62041 -2.6752,4.47666 -4.0199,4.47666 -0.6436,0 -0.12,-1.1 1.1632,-2.44444 z m -4.8671,-1.74624 c -0.1461,-3.87413 2.3902,-5.60448 5.3214,-3.63036 1.466,0.98736 1.3122,1.18007 -0.699,0.87664 -1.7816,-0.26877 -2.8734,0.64095 -3.5338,2.9444 l -0.9556,3.33334 -0.1334,-3.52402 z m -843.3015,-21.86086 c -0.4573,-1.1916 -0.7934,-2.86748 -0.7469,-3.72417 0.047,-0.85668 0.6594,-0.12054 1.362,1.63596 0.7026,1.75646 1.0387,3.43234 0.7469,3.72417 -0.2919,0.29183 -0.9048,-0.44436 -1.362,-1.63596 z m -21.1818,-65.03575 c -7.874,-23.75448 -14.3017,-44.02758 -14.2838,-45.05133 0.018,-1.02376 6.6115,17.93863 14.6526,42.13863 8.041,24.2 14.4687,44.4731 14.2837,45.05133 -0.185,0.57824 -6.7786,-18.38415 -14.6525,-42.13863 z m -22.8182,-69.63091 c -1.2867,-3.35292 -0.9071,-4.21807 0.6647,-1.51512 0.7782,1.33833 1.1341,2.71421 0.7908,3.0575 -0.3433,0.3433 -0.9983,-0.35078 -1.4555,-1.54238 z m -6.6809,-20.09899 c -2.7844,-8.46004 -4.8303,-15.61416 -4.5464,-15.89803 0.2839,-0.28386 2.7943,6.40572 5.5787,14.86576 2.7844,8.46004 4.8303,15.61416 4.5464,15.89803 -0.2839,0.28387 -2.7943,-6.40572 -5.5787,-14.86576 z m -7.8648,-24.80185 c -1.2142,-3.79691 -1.9863,-7.12478 -1.7158,-7.39526 0.2704,-0.27048 1.514,2.58596 2.7634,6.34764 1.2495,3.76168 2.0216,7.08955 1.7159,7.39526 -0.3057,0.3057 -1.5493,-2.55072 -2.7635,-6.34764 z m -6.8312,-19.83549 c -1.8665,-6.07791 -3.16,-11.28443 -2.8744,-11.57004 0.2857,-0.28562 2.0428,4.45726 3.9048,10.53973 1.8619,6.08248 3.1554,11.289 2.8744,11.57004 -0.2811,0.28105 -2.0382,-4.46183 -3.9048,-10.53973 z m -8.0237,-23.82283 c -1.887,-5.97316 -3.3873,-11.57931 -3.3342,-12.45812 0.053,-0.87881 1.8217,3.78352 3.9303,10.36073 2.1085,6.57722 3.6089,12.18338 3.3342,12.45812 -0.2748,0.27476 -2.0434,-4.38757 -3.9303,-10.36073 z m -8.0156,-26.3272 c -0.4977,-2.050817 -2.0779,-6.184938 -3.51144,-9.186933 -3.24667,-6.798864 -12.06864,-32.821392 -11.36531,-33.524725 0.28514,-0.285134 2.7736,6.269373 5.52992,14.56557 2.75632,8.296198 5.75166,16.283995 6.65633,17.750662 2.1716,3.520754 5.0461,12.673626 4.235,13.484766 -0.3517,0.35168 -1.0467,-1.03852 -1.5445,-3.08934 z M 980.26667,33.733332 c -1.97306,-6.428793 -1.01815,-7.383704 1.06666,-1.066666 0.87951,2.664936 1.33982,5.104625 1.02291,5.421531 -0.31691,0.316907 -1.25721,-1.642782 -2.08957,-4.354865 z m -4.1614,-11.957617 c -0.0579,-0.856688 -0.45058,-2.656688 -0.87262,-4 -0.7294,-2.321625 -0.69177,-2.324533 0.76104,-0.05881 0.8406,1.310963 1.23328,3.110963 0.8726,4 -0.4733,1.166663 -0.68505,1.183028 -0.76102,0.05881 z M 970.89019,6.7347286 c -0.77998,-2.2374341 -1.1345,-4.068062 -0.78783,-4.068062 0.90013,0 3.41605,6.9260326 2.75577,7.5863134 -0.3024,0.302396 -1.18797,-1.2808174 -1.96794,-3.5182514 z"
       id="path3874"
       inkscape:connector-curvature="0" />
    <path
       style="fill:#f6f8f8;stroke-width:1.33333325"
       d="m 1093.3333,530.16324 c 0,-0.27687 1.05,-1.32687 2.3334,-2.33334 2.1147,-1.65849 2.1619,-1.61133 0.5034,0.50342 -1.7418,2.221 -2.8368,2.9273 -2.8368,1.82992 z M 1104,520.8299 c 0,-0.27686 1.05,-1.32686 2.3333,-2.33333 2.1148,-1.65849 2.1619,-1.61133 0.5034,0.50341 -1.7418,2.221 -2.8367,2.92731 -2.8367,1.82992 z m 19.0029,-46.82992 c 0.015,-2.93333 0.2879,-3.97633 0.6068,-2.31778 0.3189,1.65854 0.3068,4.05854 -0.027,5.33333 -0.3337,1.27479 -0.5946,-0.0823 -0.5798,-3.01555 z"
       id="path3872"
       inkscape:connector-curvature="0" />
    <path
       style="fill:#f5f6f8;stroke-width:1.33333325"
       d="m 1121.4386,484.55554 c 0.064,-1.55326 0.3799,-1.8692 0.8055,-0.80556 0.3852,0.9625 0.3378,2.11251 -0.1052,2.55556 -0.443,0.44306 -0.7581,-0.34445 -0.7002,-1.75 z M 1932.2808,371.4678 c 0.9456,-1.02604 1.9293,-1.66596 2.186,-1.42204 0.7909,0.75128 -1.2135,3.28756 -2.598,3.28756 -0.7191,0 -0.5336,-0.83948 0.412,-1.86552 z"
       id="path3870"
       inkscape:connector-curvature="0" />
    <path
       style="fill:#f1f4f5;stroke-width:1.33333325"
       d="m 784,716.76047 c 0,-0.36667 1.2,-1.30889 2.66667,-2.09383 1.46666,-0.78493 2.66666,-1.12716 2.66666,-0.76049 0,0.36667 -1.2,1.30889 -2.66666,2.09383 C 785.2,716.78491 784,717.12714 784,716.76047 Z m 13.33333,-8 c 0,-0.36667 1.2,-1.30889 2.66667,-2.09383 1.46667,-0.78493 2.66667,-1.12716 2.66667,-0.76049 0,0.36667 -1.2,1.30889 -2.66667,2.09383 -1.46667,0.78493 -2.66667,1.12716 -2.66667,0.76049 z m 37.33334,-22.66667 c 0,-0.36666 1.2,-1.30889 2.66666,-2.09382 C 838.8,683.21504 840,682.87282 840,683.23948 c 0,0.36667 -1.2,1.3089 -2.66667,2.09383 -1.46666,0.78493 -2.66666,1.12716 -2.66666,0.76049 z m 6.66666,-4 c 0,-0.36666 1.2,-1.30889 2.66667,-2.09382 1.46667,-0.78494 2.66667,-1.12716 2.66667,-0.7605 0,0.36667 -1.2,1.3089 -2.66667,2.09383 -1.46667,0.78493 -2.66667,1.12716 -2.66667,0.76049 z m 13.33334,-8 c 0,-0.36666 1.2,-1.30889 2.66666,-2.09382 C 858.8,671.21505 860,670.87282 860,671.23949 c 0,0.36666 -1.2,1.30889 -2.66667,2.09382 -1.46666,0.78493 -2.66666,1.12716 -2.66666,0.76049 z m 24,-14.66666 c 0,-0.36667 1.2,-1.30889 2.66666,-2.09383 C 882.8,656.54838 884,656.20615 884,656.57282 c 0,0.36667 -1.2,1.30889 -2.66667,2.09383 -1.46666,0.78493 -2.66666,1.12716 -2.66666,0.76049 z m 6.66666,-4 c 0,-0.36667 1.2,-1.30889 2.66667,-2.09383 1.46667,-0.78493 2.66667,-1.12716 2.66667,-0.76049 0,0.36667 -1.2,1.30889 -2.66667,2.09383 -1.46667,0.78493 -2.66667,1.12716 -2.66667,0.76049 z m 6.66667,-4 c 0,-0.36667 1.2,-1.30889 2.66667,-2.09383 1.46666,-0.78493 2.66666,-1.12716 2.66666,-0.76049 0,0.36667 -1.2,1.30889 -2.66666,2.09383 C 893.2,651.45158 892,651.79381 892,651.42714 Z m 37.33333,-22.66667 c 0,-0.36666 1.2,-1.30889 2.66667,-2.09382 1.46667,-0.78494 2.66667,-1.12716 2.66667,-0.7605 0,0.36667 -1.2,1.3089 -2.66667,2.09383 -1.46667,0.78493 -2.66667,1.12716 -2.66667,0.76049 z m 6.66667,-4 c 0,-0.36666 1.2,-1.30889 2.66667,-2.09382 1.46666,-0.78494 2.66666,-1.12716 2.66666,-0.7605 0,0.36667 -1.2,1.3089 -2.66666,2.09383 C 937.2,624.78491 936,625.12714 936,624.76047 Z m 32,-18.59724 c 0,-0.27686 1.05,-1.32686 2.33333,-2.33333 2.11475,-1.65849 2.16191,-1.61133 0.50342,0.50341 -1.74183,2.221 -2.83675,2.92731 -2.83675,1.82992 z m 20,-13.40276 c 0,-0.36666 1.2,-1.30889 2.66667,-2.09382 1.46666,-0.78494 2.66666,-1.12716 2.66666,-0.7605 0,0.36667 -1.2,1.3089 -2.66666,2.09383 C 989.2,592.78491 988,593.12714 988,592.76047 Z m 17.3333,-10.66666 c 0,-0.36667 1.2,-1.3089 2.6667,-2.09383 1.4667,-0.78493 2.6667,-1.12716 2.6667,-0.76049 0,0.36666 -1.2,1.30889 -2.6667,2.09382 -1.4667,0.78494 -2.6667,1.12716 -2.6667,0.7605 z m 17.3334,-10.66667 c 0,-0.36667 1.2,-1.30889 2.6666,-2.09382 1.4667,-0.78494 2.6667,-1.12716 2.6667,-0.7605 0,0.36667 -1.2,1.3089 -2.6667,2.09383 -1.4666,0.78493 -2.6666,1.12716 -2.6666,0.76049 z M 1040,560.76048 c 0,-0.36667 1.2,-1.3089 2.6667,-2.09383 1.4666,-0.78493 2.6666,-1.12716 2.6666,-0.76049 0,0.36666 -1.2,1.30889 -2.6666,2.09382 -1.4667,0.78494 -2.6667,1.12716 -2.6667,0.7605 z m 17.3333,-10.66667 c 0,-0.36667 1.2,-1.30889 2.6667,-2.09383 1.4667,-0.78493 2.6667,-1.12716 2.6667,-0.76049 0,0.36667 -1.2,1.30889 -2.6667,2.09383 -1.4667,0.78493 -2.6667,1.12716 -2.6667,0.76049 z m 13.3334,-8 c 0,-0.36667 1.2,-1.30889 2.6666,-2.09383 1.4667,-0.78493 2.6667,-1.12716 2.6667,-0.76049 0,0.36667 -1.2,1.30889 -2.6667,2.09383 -1.4666,0.78493 -2.6666,1.12716 -2.6666,0.76049 z M 1094,527.99998 c 1.3273,-1.46666 2.7133,-2.66666 3.08,-2.66666 0.3666,0 -0.4193,1.2 -1.7467,2.66666 -1.3273,1.46667 -2.7133,2.66667 -3.0799,2.66667 -0.3667,0 0.4193,-1.2 1.7466,-2.66667 z m 8.6667,-7.33333 c 2.4877,-2.56667 4.8231,-4.66667 5.1897,-4.66667 0.3667,0 -1.3687,2.1 -3.8564,4.66667 -2.4877,2.56667 -4.8231,4.66667 -5.1898,4.66667 -0.3666,0 1.3688,-2.1 3.8565,-4.66667 z m 17.4386,-33.44444 c 0.064,-1.55327 0.3799,-1.8692 0.8055,-0.80556 0.3852,0.96249 0.3378,2.11251 -0.1052,2.55556 -0.443,0.44305 -0.7582,-0.34445 -0.7003,-1.75 z m 1.6656,-13.22223 c 0.01,-5.13333 0.2469,-7.06994 0.5355,-4.3036 0.2886,2.76636 0.2838,6.96636 -0.011,9.33334 -0.2945,2.36698 -0.5307,0.1036 -0.5248,-5.02974 z m -5.1591,-26.0887 c -0.4833,-0.78212 -0.5929,-1.708 -0.2434,-2.05751 0.3495,-0.3495 0.9908,0.29042 1.425,1.42204 0.9016,2.34948 0.1331,2.76275 -1.1816,0.63547 z m -2.3035,-6.47108 c -0.58,-2.2178 -0.4065,-2.73837 0.583,-1.74895 0.7748,0.7748 1.1464,2.19576 0.8257,3.15768 -0.3329,0.9986 -0.9372,0.3942 -1.4087,-1.40873 z m -2.8102,-6.15843 c -1.2867,-3.35292 -0.9071,-4.21806 0.6647,-1.51512 0.7782,1.33834 1.1341,2.71422 0.7908,3.05751 -0.3433,0.34329 -0.9983,-0.35079 -1.4555,-1.54239 z m 817.8352,-65.05956 c 0,-1.23529 1.0363,-2.21316 2.3334,-2.20181 1.3316,0.012 1.7609,0.44764 1,1.01552 -0.7334,0.54729 -1.7834,1.53811 -2.3334,2.2018 -0.55,0.66369 -1,0.20671 -1,-1.01551 z m -843.8947,-13.77983 c -0.058,-0.8567 -0.4506,-2.6567 -0.8726,-4 -0.7294,-2.32163 -0.6918,-2.32454 0.761,-0.0588 0.8406,1.31096 1.2333,3.11096 0.8726,4 -0.4733,1.16665 -0.685,1.18302 -0.761,0.0588 z m -37.3333,-114.55349 c 0.064,-1.55327 0.3799,-1.8692 0.8055,-0.80556 0.3852,0.96249 0.3378,2.11249 -0.1052,2.55556 -0.443,0.44305 -0.7582,-0.34446 -0.7003,-1.75 z m -8.6072,-26.60711 c -1.2867,-3.35292 -0.9071,-4.21807 0.6647,-1.51512 0.7782,1.33833 1.1341,2.71421 0.7908,3.05751 -0.3433,0.34329 -0.9983,-0.35079 -1.4555,-1.54239 z m -12.7262,-38.72623 c 0.064,-1.55326 0.38,-1.8692 0.8056,-0.80556 0.3851,0.9625 0.3378,2.1125 -0.1052,2.55556 -0.4431,0.44306 -0.7582,-0.34445 -0.7003,-1.75 z m -4.6072,-13.27377 c -1.2866,-3.35292 -0.9071,-4.21807 0.6647,-1.51512 0.7783,1.33833 1.1342,2.71421 0.7909,3.05751 -0.3433,0.34329 -0.9983,-0.35079 -1.4556,-1.54239 z m -8,-24 c -1.2866,-3.35292 -0.9071,-4.21806 0.6647,-1.51512 0.7783,1.33834 1.1342,2.71422 0.7909,3.05751 -0.3433,0.34329 -0.9983,-0.35079 -1.4556,-1.54239 z"
       id="path3868"
       inkscape:connector-curvature="0" />
    <path
       style="fill:#edf1f2;stroke-width:1.33333325"
       d="m 772.95365,723.131 c -0.39214,-0.63452 2.23286,-2.7984 5.83334,-4.80862 7.67557,-4.28543 8.81461,-3.91826 1.54634,0.49846 -2.75,1.67111 -5.375,3.5841 -5.83333,4.25111 -0.45989,0.66927 -1.15285,0.69573 -1.54635,0.0591 z m 14.37968,-9.43198 c 0.73334,-0.69975 3.73334,-2.61991 6.66667,-4.26702 2.93333,-1.6471 4.13333,-1.9974 2.66667,-0.77844 -2.97898,2.47587 -11.42576,7.04207 -9.33334,5.04546 z M 800,706.23842 c 0,-0.40422 6.75,-4.78031 15,-9.72466 8.25,-4.94434 16.35,-9.85164 18,-10.90509 1.65,-1.05347 3,-1.58467 3,-1.18047 0,0.40422 -6.75,4.78031 -15,9.72466 -8.25,4.94434 -16.35,9.85164 -18,10.90509 -1.65,1.05347 -3,1.58467 -3,1.18047 z m 37.33333,-22.81128 c 0,-0.36667 1.2,-1.3089 2.66667,-2.09383 1.46667,-0.78493 2.66667,-1.12716 2.66667,-0.76049 0,0.36666 -1.2,1.30889 -2.66667,2.09382 -1.46667,0.78494 -2.66667,1.12716 -2.66667,0.7605 z M 844,679.57175 c 0,-0.40421 6.75,-4.78031 15,-9.72465 8.25,-4.94435 16.35,-9.85164 18,-10.90509 1.65,-1.05347 3,-1.58467 3,-1.18047 0,0.40421 -6.75,4.78031 -15,9.72465 -8.25,4.94435 -16.35,9.85164 -18,10.90509 -1.65,1.05347 -3,1.58467 -3,1.18047 z m 37.33333,-22.81128 c 0,-0.36666 1.2,-1.30889 2.66667,-2.09382 1.46667,-0.78494 2.66667,-1.12716 2.66667,-0.7605 0,0.36667 -1.2,1.3089 -2.66667,2.09383 -1.46667,0.78493 -2.66667,1.12716 -2.66667,0.76049 z m 6.66667,-4 c 0,-0.36666 1.2,-1.30889 2.66667,-2.09382 1.46666,-0.78494 2.66666,-1.12716 2.66666,-0.7605 0,0.36667 -1.2,1.3089 -2.66666,2.09383 C 889.2,652.78491 888,653.12714 888,652.76047 Z m 6.66667,-3.85538 c 0,-0.40422 6.75,-4.78031 15,-9.72466 8.25,-4.94434 16.35,-9.85164 18,-10.90509 1.65,-1.05347 3,-1.58467 3,-1.18047 0,0.40422 -6.75,4.78031 -15,9.72466 -8.25,4.94434 -16.35,9.85164 -18,10.90509 -1.65,1.05347 -3,1.58467 -3,1.18047 z M 932,626.09381 c 0,-0.36667 1.2,-1.3089 2.66667,-2.09383 1.46666,-0.78493 2.66666,-1.12716 2.66666,-0.76049 0,0.36666 -1.2,1.30889 -2.66666,2.09382 C 933.2,626.11825 932,626.46047 932,626.09381 Z m 7.33333,-4.42938 c 1.8368,-1.96854 31.55575,-19.10301 30.68243,-17.68996 -0.38656,0.62548 -5.64824,3.96083 -11.69263,7.41191 -6.04438,3.45107 -13.0898,7.49695 -15.65646,8.99085 -2.56667,1.4939 -4.06667,2.07314 -3.33334,1.2872 z m 33.32716,-20.32113 c 0.3899,-0.63085 11.65079,-7.86596 25.0242,-16.078 27.17551,-16.6873 27.54971,-16.90549 25.64861,-14.9556 -1.9986,2.04996 -51.49417,32.36259 -50.67281,31.0336 z m 55.22571,-34.28472 c 1.7708,-1.31556 5.6708,-3.7683 8.6667,-5.45053 2.9959,-1.68224 3.9983,-1.98224 2.2275,-0.66667 -1.7707,1.31556 -5.6707,3.76831 -8.6666,5.45054 -2.9959,1.68224 -3.9983,1.98224 -2.2276,0.66666 z m 17.3334,-10.66666 c 1.7707,-1.31556 5.6707,-3.76831 8.6666,-5.45054 2.9959,-1.68224 3.9983,-1.98224 2.2276,-0.66666 -1.7708,1.31556 -5.6708,3.7683 -8.6667,5.45053 -2.9959,1.68224 -3.9983,1.98224 -2.2275,0.66667 z M 1062,546.01306 c 2.979,-2.47586 11.4258,-7.04206 9.3333,-5.04545 -0.7333,0.69975 -3.7333,2.61991 -6.6666,4.26701 -2.9334,1.64711 -4.1334,1.9974 -2.6667,0.77844 z m 14,-8.4961 c 1.8333,-1.5249 6.0333,-4.14003 9.3333,-5.81142 14.8663,-7.52949 25.8261,-20.30344 31.7522,-37.0081 1.8722,-5.27734 2.786,-6.86238 2.3238,-4.03079 -2.2646,13.87504 -18.5606,35.05571 -31.6474,41.13363 -3.169,1.47182 -7.8619,3.984 -10.4286,5.58261 -4.3492,2.70887 -4.4399,2.71799 -1.3333,0.13407 z m 44.1998,-61.77162 c -0.1099,-5.64005 0.2502,-10.53415 0.8002,-10.87577 0.55,-0.34162 0.8304,2.77296 0.6232,6.92131 -0.6505,13.02221 -1.2162,14.59358 -1.4234,3.95446 z m 0.1021,-16.07869 c -1.8862,-2.31498 -4.3921,-11.8798 -2.8652,-10.93609 0.6765,0.41808 1.2337,1.77473 1.2382,3.01479 0,1.24005 0.8689,3.90464 1.9209,5.9213 2.0412,3.91282 1.9225,4.72022 -0.2939,2 z m -8.0853,-20.39044 c -2.234,-4.90305 -1.8078,-5.94905 0.6078,-1.49168 1.1281,2.0815 1.8015,4.03403 1.4966,4.33896 -0.305,0.30494 -1.2519,-0.97633 -2.1044,-2.84728 z m -12.0584,-35.43441 c -5.3638,-16.14735 -9.5235,-29.58761 -9.2438,-29.86728 0.2796,-0.27965 4.897,12.70299 10.2608,28.85032 5.3637,16.14735 9.5235,29.58761 9.2438,29.86728 -0.2797,0.27965 -4.897,-12.70299 -10.2608,-28.85032 z m 830.5085,-33.17515 c 0,-0.73333 0.6,-1.33333 1.3333,-1.33333 0.7333,0 1.3333,0.6 1.3333,1.33333 0,0.73334 -0.6,1.33334 -1.3333,1.33334 -0.7333,0 -1.3333,-0.6 -1.3333,-1.33334 z m -867.8408,-80.15919 c -6.0988,-18.34567 -10.8604,-33.58411 -10.5813,-33.86321 0.2791,-0.27911 5.4974,14.50262 11.5962,32.84827 6.0988,18.34567 10.8603,33.58411 10.5812,33.86322 -0.2791,0.2791 -5.4973,-14.50263 -11.5961,-32.84828 z m -25.8518,-79.52105 c -5.6976,-16.67586 -10.3164,-30.91975 -10.264,-31.65308 0.052,-0.73334 4.87,12.44908 10.7056,29.29425 5.8357,16.84516 10.4545,31.08905 10.264,31.65308 -0.1905,0.56403 -5.008,-12.61839 -10.7056,-29.29425 z m -11.5355,-35.76419 c 0.064,-1.55327 0.3799,-1.8692 0.8055,-0.80556 0.3852,0.96249 0.3378,2.11249 -0.1052,2.55556 -0.443,0.44305 -0.7581,-0.34445 -0.7002,-1.75 z m -3.2739,-9.27377 c -1.2866,-3.35292 -0.9071,-4.21807 0.6647,-1.51512 0.7783,1.33833 1.1342,2.71421 0.7909,3.0575 -0.3433,0.3433 -0.9983,-0.35078 -1.4556,-1.54238 z m -4.0147,-10.78037 c -1.1825,-3.47039 -2.1177,-7.25291 -2.0783,-8.4056 0.04,-1.1527 1.2135,1.48014 2.609,5.85076 3.0181,9.45245 2.5641,11.63775 -0.5307,2.55484 z m -3.9853,-13.21963 c -1.2866,-3.35292 -0.9071,-4.21807 0.6647,-1.51512 0.7783,1.33833 1.1342,2.71421 0.7909,3.05751 -0.3433,0.34329 -0.9983,-0.35079 -1.4556,-1.54239 z m -8.0695,-24.04369 c -0.4904,-1.95402 -0.6345,-3.8099 -0.3202,-4.12419 0.3143,-0.31428 0.9727,1.02731 1.4631,2.98133 0.4904,1.95402 0.6345,3.8099 0.3202,4.12419 -0.3142,0.31428 -0.9726,-1.02732 -1.4631,-2.98133 z m -9.81233,-28.613976 c -2.38788,-3.823603 -1.96411,-5.047511 0.5198,-1.501239 1.1748,1.677261 1.90208,3.283479 1.61618,3.569371 -0.28589,0.285893 -1.24709,-0.644767 -2.13598,-2.068132 z"
       id="path3866"
       inkscape:connector-curvature="0" />
    <path
       style="fill:#e9eef0;stroke-width:1.33333325"
       d="M 1.3333333,361.99999 V 0 H 484.5838 c 459.41,0 483.24265,0.11511165 483.09205,2.3333333 -0.18726,2.7583625 26.65604,83.7818307 29.04422,87.6666637 0.90162,1.466667 5.63393,15.266663 10.51623,30.666663 4.8823,15.4 10.8699,33.7 13.3058,40.66667 2.4358,6.96666 10.5024,31.26666 17.9257,54 18.8978,57.87349 73.7986,223.54526 77.5435,233.99999 1.7075,4.76667 4.0093,9.73084 5.1151,11.03151 1.5953,1.87638 1.6703,2.70257 0.3631,4 -1.3043,1.29452 -1.4624,1.14908 -0.7592,-0.69818 0.4886,-1.28333 0.3317,-2.33333 -0.3486,-2.33333 -0.7092,0 -0.9855,4.79141 -0.6476,11.22853 0.7244,13.80204 -2.4832,25.69305 -10.1165,37.5032 -4.7731,7.38493 -17.0461,19.26827 -19.9,19.26827 -0.6851,0 -5.4019,2.62257 -10.4817,5.82794 -10.8008,6.81543 -99.95437,61.86296 -118.91542,73.42393 -24.11041,14.70066 -158.19899,95.81275 -173.26884,104.8128 -8.22159,4.91012 -14.57159,9.30425 -14.11111,9.76475 0.46048,0.46048 -172.96276,0.83724 -385.38497,0.83724 H 1.3333333 Z M 683.75523,619.66665 c 0.36008,-3.12938 -0.0636,-3.66667 -2.89095,-3.66667 -5.36412,0 -7.53095,1.40691 -7.53095,4.8898 0,2.96471 0.46844,3.2324 5,2.85736 4.34091,-0.35928 5.05562,-0.89716 5.4219,-4.08049 z m 274.91144,-11.66667 c 0,-0.73333 -0.26459,-1.33333 -0.58798,-1.33333 -0.32338,0 -0.9588,0.6 -1.41202,1.33333 -0.45323,0.73333 -0.18864,1.33333 0.58797,1.33333 0.77661,0 1.41203,-0.6 1.41203,-1.33333 z m 8,-4.66667 c 2.11177,-2.54453 0.13133,-2.51873 -3.25484,0.0424 -2.07194,1.56714 -2.17099,1.9576 -0.49659,1.9576 1.15036,0 2.83851,-0.9 3.75143,-2 z M 1092,526.66665 c 0,-1.67056 -1.415,-1.67056 -4,0 -1.6173,1.04516 -1.4259,1.2964 1,1.31292 1.65,0.0112 3,-0.57959 3,-1.31292 z m 23.5775,-76.25 c -0.4256,-1.06364 -0.7416,-0.7477 -0.8056,0.80556 -0.058,1.40555 0.2573,2.19306 0.7003,1.75 0.4431,-0.44305 0.4904,-1.59306 0.1052,-2.55556 z M 638.66667,171.33333 c 0,-6.71855 -0.25151,-7.33263 -3,-7.32491 -3.43648,0.009 -7.66667,6.31795 -7.66667,11.43296 0,2.87393 0.58099,3.22528 5.33333,3.22528 h 5.33334 z"
       id="path3864"
       inkscape:connector-curvature="0" />
    <path
       style="fill:#e7ecee;stroke-width:1.33333325"
       d="m 673.33333,620.88978 c 0,-3.48289 2.16683,-4.8898 7.53095,-4.8898 2.8274,0 3.25103,0.53729 2.89095,3.66667 -0.36628,3.18333 -1.08099,3.72121 -5.4219,4.08049 -4.53156,0.37504 -5,0.10733 -5,-2.85736 z m 283.33334,-12.8898 c 0.45322,-0.73333 1.08864,-1.33333 1.41202,-1.33333 0.32339,0 0.58798,0.6 0.58798,1.33333 0,0.73333 -0.63542,1.33333 -1.41203,1.33333 -0.77661,0 -1.0412,-0.6 -0.58797,-1.33333 z m 6.74516,-4.62427 c 3.38612,-2.56113 5.36661,-2.58693 3.25484,-0.0424 -0.91292,1.1 -2.60107,2 -3.75143,2 -1.6744,0 -1.57535,-0.39046 0.49659,-1.9576 z M 1088,526.66665 c 2.585,-1.67056 4,-1.67056 4,0 0,0.73333 -1.35,1.32415 -3,1.31292 -2.4259,-0.0165 -2.6173,-0.26776 -1,-1.31292 z m 30.6667,-63.25464 c 0,-1.14328 0.6,-2.07869 1.3333,-2.07869 0.7333,0 1.3333,0.56459 1.3333,1.25464 0,0.69005 -0.6,1.62547 -1.3333,2.07869 -0.7333,0.45323 -1.3333,-0.11133 -1.3333,-1.25464 z m -3.8948,-12.1898 c 0.064,-1.55326 0.38,-1.8692 0.8056,-0.80556 0.3851,0.9625 0.3378,2.11251 -0.1052,2.55556 -0.4431,0.44306 -0.7582,-0.34445 -0.7003,-1.75 z M 628,175.44138 c 0,-5.11501 4.23019,-11.42329 7.66667,-11.43296 2.74849,-0.008 3,0.60636 3,7.32491 v 7.33333 h -5.33334 c -4.75234,0 -5.33333,-0.35135 -5.33333,-3.22528 z"
       id="path3862"
       inkscape:connector-curvature="0" />
  </g>
</svg>
